<?xml version="1.0" encoding="UTF-8"?>
<svg width="200" height="200" viewBox="0 0 200 200" xmlns="http://www.w3.org/2000/svg">
  <defs>
    <linearGradient id="goldGradient" x1="0%" y1="0%" x2="100%" y2="100%">
      <stop offset="0%" style="stop-color:#ffd700;stop-opacity:1" />
      <stop offset="50%" style="stop-color:#ffed4e;stop-opacity:1" />
      <stop offset="100%" style="stop-color:#d4af37;stop-opacity:1" />
    </linearGradient>
    <filter id="coinShadow" x="-50%" y="-50%" width="200%" height="200%">
      <feDropShadow dx="4" dy="4" stdDeviation="4" flood-color="#000000" flood-opacity="0.4"/>
    </filter>
  </defs>
  
  <!-- Main coin circle -->
  <circle cx="100" cy="100" r="80" 
          fill="url(#goldGradient)" 
          stroke="#b8860b" 
          stroke-width="4"
          filter="url(#coinShadow)"/>
  
  <!-- Inner rim -->
  <circle cx="100" cy="100" r="70" 
          fill="none" 
          stroke="#daa520" 
          stroke-width="2"/>
  
  <!-- Crown symbol (heads) -->
  <g transform="translate(100,100)">
    <!-- Crown base -->
    <rect x="-25" y="10" width="50" height="8" fill="#8b4513" rx="2"/>
    
    <!-- Crown peaks -->
    <polygon points="-25,10 -15,0 -5,10" fill="#8b4513"/>
    <polygon points="-10,10 0,-5 10,10" fill="#8b4513"/>
    <polygon points="5,10 15,0 25,10" fill="#8b4513"/>
    
    <!-- Crown jewels -->
    <circle cx="-15" cy="5" r="2" fill="#ff0000"/>
    <circle cx="0" cy="2" r="2.5" fill="#0000ff"/>
    <circle cx="15" cy="5" r="2" fill="#ff0000"/>
  </g>
  
  <!-- Highlight -->
  <circle cx="100" cy="100" r="75" 
          fill="none" 
          stroke="rgba(255,255,255,0.3)" 
          stroke-width="2"/>
  
  <!-- Reflection -->
  <ellipse cx="85" cy="85" rx="15" ry="25" 
           fill="rgba(255,255,255,0.6)" 
           transform="rotate(-30 85 85)"/>
</svg>